<svg width="158" height="256" viewBox="0 0 158 256" fill="none" xmlns="http://www.w3.org/2000/svg">
<path d="M71.1964 0.189528C48.5952 1.8015 29.0752 14.3728 18.026 32.5547C17.9731 32.6436 17.9201 32.7326 17.8672 32.8216C17.6978 33.099 17.5284 33.3763 17.3642 33.6537C17.3378 33.7008 17.3166 33.7427 17.2954 33.7898C17.2636 33.8474 17.2372 33.9049 17.2054 33.9625C15.2042 37.6313 14.1136 41.7764 14.1136 46.0523V152.526C14.1136 157.033 17.809 160.686 22.3673 160.686H69.4652C74.0235 160.686 77.7189 157.033 77.7189 152.526V136.878C77.7189 135.25 79.0055 133.921 80.652 133.811C114.837 131.587 142.097 104.293 143.797 70.3523C145.856 29.247 112.714 -2.76751 71.1964 0.189528ZM42.4909 101.069C42.2791 101.079 42.0726 101.09 41.8661 101.095C41.4849 101.111 41.1038 101.116 40.7226 101.116C40.532 101.116 40.3467 101.116 40.1561 101.116C37.689 101.074 35.2801 100.776 32.9665 100.247C27.5504 99.0015 23.7015 94.2494 23.7015 88.7488V45.7331C23.7015 40.2586 27.5134 35.496 32.9082 34.2504C35.1424 33.7375 37.456 33.4339 39.8331 33.3763H39.8967C39.9284 33.3763 39.9655 33.3763 39.992 33.3763C40.2355 33.3763 40.4737 33.3763 40.7173 33.3763C45.7468 33.3763 50.5223 34.444 54.8212 36.37C55.3242 36.5951 55.8218 36.8306 56.3195 37.0818C56.8119 37.333 57.2989 37.5947 57.7754 37.8668C59.4484 38.8194 61.0314 39.908 62.5138 41.1117C62.9373 41.4572 63.345 41.8078 63.7527 42.1794C64.1603 42.5405 64.5574 42.9174 64.9439 43.2994C65.3303 43.6815 65.7115 44.074 66.0768 44.477C66.4474 44.88 66.8074 45.2934 67.1569 45.7069C68.724 47.591 70.0952 49.6426 71.2335 51.8303C71.4876 52.3171 71.7258 52.8143 71.9535 53.3115C73.8965 57.5664 74.9818 62.2872 74.9818 67.254C74.9818 67.6151 74.9765 67.9763 74.9606 68.3374C74.9553 68.5624 74.95 68.7822 74.9342 68.9968C74.9342 69.0963 74.9236 69.2062 74.913 69.3056C74.8918 69.7557 74.8547 70.2006 74.8124 70.6454C74.7594 71.1583 74.7012 71.6712 74.6218 72.1841C74.5741 72.5086 74.5265 72.8226 74.463 73.1471C71.7576 88.4347 58.6807 100.195 42.6656 101.079C42.602 101.079 42.5438 101.09 42.4803 101.09L42.4909 101.069ZM50.0352 112.714C47.5045 111.897 47.9545 107.826 50.5858 107.689C60.9361 107.145 71.0164 101.77 77.8513 91.9884C90.2081 74.2881 87.2433 48.8576 71.2493 35.1924C65.055 29.9012 57.8178 27.1483 50.554 26.7871C47.9492 26.6563 47.5363 22.5688 50.0458 21.7628C64.748 17.0211 81.2926 21.1661 92.7653 34.198C108.876 52.5002 108.881 81.9711 92.7653 100.279C81.2873 113.316 64.7374 117.461 50.0352 112.714ZM116.267 107.904C107.415 116.901 96.3601 122.297 84.8662 124.087C81.6261 124.589 80.3131 120.046 83.2885 118.644C89.0593 115.917 94.4647 112.138 99.2296 107.302C120.984 85.1742 120.984 49.2972 99.2296 27.1744C94.4647 22.3333 89.054 18.5493 83.2885 15.833C80.3131 14.4304 81.6261 9.88755 84.8662 10.39C96.3548 12.1747 107.415 17.5706 116.267 26.5673C138.354 49.0355 138.354 85.4463 116.267 107.904Z" fill="white"/>
<path d="M4.131 194.448C4.131 193.338 4.53634 192.421 5.347 191.696C6.15767 190.928 7.18167 190.544 8.419 190.544H26.211C29.283 190.544 31.9923 191.162 34.339 192.4C36.7283 193.594 38.563 195.322 39.843 197.584C41.1657 199.802 41.827 202.384 41.827 205.328C41.827 208.314 41.187 210.938 39.907 213.2C38.627 215.418 36.8137 217.146 34.467 218.384C32.1203 219.578 29.3683 220.176 26.211 220.176H12.707V229.584C12.707 231.632 11.9603 233.21 10.467 234.32C9.01634 235.386 6.90434 235.92 4.131 235.92V194.448ZM26.211 212.752C28.4723 212.752 30.2217 212.09 31.459 210.768C32.6963 209.445 33.315 207.61 33.315 205.264C33.315 202.96 32.675 201.168 31.395 199.888C30.1577 198.608 28.4297 197.968 26.211 197.968H12.707V212.752H26.211ZM74.763 229.712C74.763 231.717 74.123 233.253 72.843 234.32C71.6057 235.386 69.707 235.92 67.147 235.92V232.08C67.7017 231.44 68.2137 230.736 68.683 229.968L68.299 229.712C65.5683 233.85 61.899 235.92 57.291 235.92C55.115 235.92 53.1523 235.429 51.403 234.448C49.6963 233.424 48.331 232.016 47.307 230.224C46.3257 228.432 45.835 226.405 45.835 224.144V207.632C45.835 205.882 46.475 204.645 47.755 203.92C49.0777 203.152 51.083 202.768 53.771 202.768V223.568C53.771 225.232 54.283 226.554 55.307 227.536C56.331 228.517 57.803 229.008 59.723 229.008C61.8563 229.008 63.563 228.346 64.843 227.024C66.1657 225.658 66.827 223.973 66.827 221.968V207.632C66.827 205.882 67.467 204.645 68.747 203.92C70.027 203.152 72.0323 202.768 74.763 202.768V229.712ZM91.502 235.92C87.9607 235.92 85.2727 234.917 83.438 232.912C81.646 230.864 80.75 228.282 80.75 225.168V194.832C80.75 193.082 81.39 191.845 82.67 191.12C83.9927 190.352 86.0193 189.968 88.75 189.968V224.848C88.75 226.298 89.07 227.365 89.71 228.048C90.35 228.688 91.374 229.008 92.782 229.008C94.3607 229.008 95.9393 228.602 97.518 227.792C97.9447 228.176 98.2647 228.666 98.478 229.264C98.734 229.818 98.862 230.394 98.862 230.992C98.862 232.272 98.222 233.424 96.942 234.448C95.662 235.429 93.8487 235.92 91.502 235.92ZM110.036 235.92C105.94 235.92 102.633 235.194 100.116 233.744C97.6408 232.25 96.3822 230.266 96.3395 227.792C96.3395 226.725 96.7662 225.829 97.6195 225.104C98.5155 224.378 99.9235 223.994 101.844 223.952C102.228 225.829 103.124 227.28 104.532 228.304C105.94 229.285 107.646 229.776 109.652 229.776C111.828 229.776 113.534 229.498 114.772 228.944C116.009 228.389 116.628 227.557 116.628 226.448C116.628 225.424 116.116 224.57 115.092 223.888C114.11 223.205 112.148 222.522 109.204 221.84C106.004 221.072 103.508 220.304 101.716 219.536C99.9662 218.768 98.6648 217.786 97.8115 216.592C96.9582 215.397 96.5315 213.818 96.5315 211.856C96.5315 209.125 97.6835 206.928 99.9875 205.264C102.292 203.6 105.449 202.768 109.46 202.768C113.342 202.768 116.564 203.472 119.124 204.88C121.684 206.245 122.964 208.08 122.964 210.384C122.964 211.536 122.537 212.389 121.684 212.944C120.83 213.498 119.422 213.797 117.46 213.84C117.033 212.133 116.222 210.853 115.028 210C113.833 209.146 112.148 208.72 109.972 208.72C108.35 208.72 106.942 208.997 105.748 209.552C104.596 210.106 104.02 210.832 104.02 211.728C104.02 212.666 104.51 213.392 105.492 213.904C106.473 214.416 108.18 214.928 110.612 215.44C115.39 216.464 118.846 217.829 120.98 219.536C123.156 221.242 124.244 223.568 124.244 226.512C124.244 229.37 122.964 231.653 120.404 233.36C117.886 235.066 114.43 235.92 110.036 235.92ZM141.373 235.92C138.728 235.92 136.317 235.408 134.141 234.384C131.965 233.317 130.237 231.888 128.957 230.096C127.677 228.261 127.037 226.213 127.037 223.952V215.44C127.037 213.05 127.698 210.896 129.021 208.976C130.344 207.056 132.093 205.541 134.269 204.432C136.488 203.322 138.877 202.768 141.437 202.768C143.954 202.768 146.258 203.301 148.349 204.368C150.482 205.392 152.168 206.842 153.405 208.72C154.642 210.554 155.261 212.666 155.261 215.056V218.64C155.261 219.578 154.898 220.368 154.173 221.008C153.49 221.648 152.616 221.968 151.549 221.968H134.781V223.376C134.781 225.21 135.336 226.704 136.445 227.856C137.554 229.008 139.218 229.584 141.437 229.584C143.57 229.584 145.149 229.114 146.173 228.176C147.24 227.237 147.773 226.021 147.773 224.528C148.541 224.442 149.074 224.4 149.373 224.4C150.952 224.4 152.189 224.762 153.085 225.488C153.981 226.17 154.429 227.152 154.429 228.432C154.429 229.669 153.853 230.864 152.701 232.016C151.549 233.168 149.97 234.106 147.965 234.832C145.96 235.557 143.762 235.92 141.373 235.92ZM148.029 216.272V215.056C148.029 213.264 147.41 211.813 146.173 210.704C144.936 209.594 143.336 209.04 141.373 209.04C139.41 209.04 137.81 209.594 136.573 210.704C135.378 211.77 134.781 213.221 134.781 215.056V216.272H148.029Z" fill="white"/>
</svg>
