<svg width="222" height="222" viewBox="0 0 222 222" fill="none" xmlns="http://www.w3.org/2000/svg">
<g id="Logo-Pulse">
<path id="Vector" d="M102.161 20.2134C76.5619 22.0392 54.4525 36.2781 41.9376 56.8718C41.8777 56.9726 41.8177 57.0734 41.7577 57.1742C41.5658 57.4883 41.374 57.8025 41.1881 58.1167C41.1581 58.1701 41.1341 58.2175 41.1101 58.2708C41.0741 58.336 41.0441 58.4012 41.0082 58.4664C38.7415 62.6219 37.5062 67.3169 37.5062 72.16V192.758C37.5062 197.862 41.6918 202 46.8548 202H100.2C105.363 202 109.549 197.862 109.549 192.758V175.034C109.549 173.19 111.006 171.684 112.871 171.56C151.591 169.041 182.467 138.126 184.392 99.6835C186.725 53.1254 149.186 16.8641 102.161 20.2134ZM69.6478 134.475C69.4079 134.487 69.1741 134.498 68.9402 134.504C68.5085 134.522 68.0767 134.528 67.6449 134.528C67.4291 134.528 67.2192 134.528 67.0033 134.528C64.2089 134.481 61.4805 134.143 58.86 133.544C52.7255 132.133 48.366 126.751 48.366 120.52V71.7984C48.366 65.5978 52.6835 60.2033 58.794 58.7925C61.3246 58.2115 63.9451 57.8677 66.6375 57.8025H66.7095C66.7455 57.8025 66.7874 57.8025 66.8174 57.8025C67.0933 57.8025 67.3631 57.8025 67.639 57.8025C73.3357 57.8025 78.7446 59.0118 83.6138 61.1933C84.1835 61.4482 84.7472 61.715 85.3109 61.9995C85.8685 62.284 86.4202 62.5804 86.9599 62.8887C88.8548 63.9676 90.6478 65.2006 92.3268 66.564C92.8066 66.9553 93.2683 67.3524 93.73 67.7733C94.1918 68.1824 94.6415 68.6092 95.0793 69.0419C95.517 69.4747 95.9488 69.9193 96.3625 70.3757C96.7823 70.8322 97.1901 71.3005 97.5858 71.7688C99.3608 73.9028 100.914 76.2266 102.203 78.7045C102.491 79.2558 102.761 79.8189 103.019 80.3821C105.219 85.2015 106.449 90.5485 106.449 96.1742C106.449 96.5832 106.443 96.9922 106.425 97.4013C106.419 97.6562 106.413 97.9051 106.395 98.1482C106.395 98.2608 106.383 98.3853 106.371 98.4979C106.347 99.0077 106.305 99.5116 106.257 100.015C106.197 100.596 106.131 101.177 106.041 101.758C105.987 102.126 105.933 102.481 105.861 102.849C102.797 120.165 87.9853 133.485 69.8457 134.487C69.7737 134.487 69.7078 134.498 69.6358 134.498L69.6478 134.475ZM78.1929 147.664C75.3266 146.74 75.8363 142.128 78.8166 141.974C90.5399 141.357 101.957 135.269 109.699 124.19C123.695 104.141 120.337 75.3374 102.221 59.8595C95.2052 53.8664 87.0079 50.7483 78.7806 50.3392C75.8303 50.191 75.3625 45.5613 78.2049 44.6484C94.8574 39.2777 113.597 43.9726 126.591 58.7332C144.839 79.4633 144.845 112.844 126.591 133.58C113.591 148.346 94.8454 153.041 78.1929 147.664ZM153.21 142.217C143.184 152.407 130.663 158.518 117.644 160.546C113.974 161.115 112.487 155.969 115.857 154.381C122.394 151.292 128.516 147.012 133.913 141.535C158.553 116.471 158.553 75.8354 133.913 50.7779C128.516 45.2945 122.388 41.0086 115.857 37.932C112.487 36.3433 113.974 31.1979 117.644 31.767C130.657 33.7884 143.184 39.9001 153.21 50.0903C178.228 75.539 178.228 116.78 153.21 142.217Z" fill="#EEF5FF"/>
</g>
</svg>
