<svg width="80" height="80" viewBox="0 0 80 80" fill="none" xmlns="http://www.w3.org/2000/svg">
<g id="Logo-Pulse">
<path id="Vector" d="M36.8147 7.28412C27.5897 7.94206 19.6224 13.0732 15.1126 20.4944C15.0909 20.5307 15.0693 20.567 15.0477 20.6033C14.9786 20.7165 14.9094 20.8298 14.8424 20.943C14.8316 20.9622 14.823 20.9793 14.8143 20.9985C14.8014 21.022 14.7906 21.0455 14.7776 21.069C13.9608 22.5665 13.5156 24.2584 13.5156 26.0036V69.4625C13.5156 71.3017 15.024 72.7928 16.8845 72.7928H36.1081C37.9687 72.7928 39.477 71.3017 39.477 69.4625V63.0752C39.477 62.4109 40.0021 61.8683 40.6742 61.8234C54.6273 60.9155 65.7539 49.7752 66.4475 35.922C67.2881 19.1443 53.7607 6.07716 36.8147 7.28412ZM25.0982 48.4594C25.0118 48.4636 24.9275 48.4679 24.8432 48.47C24.6876 48.4764 24.532 48.4786 24.3764 48.4786C24.2987 48.4786 24.223 48.4786 24.1452 48.4786C23.1382 48.4615 22.155 48.3397 21.2107 48.124C19.0001 47.6156 17.4291 45.6759 17.4291 43.4307V25.8733C17.4291 23.6389 18.9849 21.6949 21.1869 21.1865C22.0988 20.9772 23.0432 20.8533 24.0134 20.8298H24.0393C24.0523 20.8298 24.0674 20.8298 24.0782 20.8298C24.1776 20.8298 24.2749 20.8298 24.3743 20.8298C26.4272 20.8298 28.3763 21.2655 30.131 22.0517C30.3363 22.1435 30.5394 22.2396 30.7425 22.3422C30.9435 22.4447 31.1423 22.5515 31.3368 22.6626C32.0196 23.0514 32.6658 23.4957 33.2708 23.9871C33.4437 24.128 33.6101 24.2712 33.7765 24.4228C33.9429 24.5702 34.1049 24.724 34.2627 24.88C34.4204 25.0359 34.576 25.1961 34.7251 25.3606C34.8764 25.5251 35.0233 25.6939 35.166 25.8626C35.8056 26.6317 36.3653 27.4691 36.8299 28.362C36.9336 28.5607 37.0308 28.7636 37.1238 28.9665C37.9168 30.7033 38.3598 32.6301 38.3598 34.6574C38.3598 34.8048 38.3576 34.9522 38.3512 35.0996C38.349 35.1914 38.3468 35.2811 38.3404 35.3687C38.3404 35.4093 38.336 35.4542 38.3317 35.4948C38.3231 35.6785 38.3079 35.8601 38.2907 36.0416C38.269 36.251 38.2453 36.4603 38.2129 36.6697C38.1934 36.8021 38.174 36.9303 38.148 37.0627C37.0438 43.3026 31.7063 48.1026 25.1695 48.4636C25.1436 48.4636 25.1198 48.4679 25.0939 48.4679L25.0982 48.4594ZM28.1775 53.2124C27.1446 52.8791 27.3283 51.2172 28.4023 51.1616C32.6269 50.9395 36.7413 48.7456 39.531 44.753C44.5746 37.5284 43.3645 27.1486 36.8364 21.571C34.3081 19.4113 31.3541 18.2877 28.3893 18.1403C27.3261 18.0869 27.1576 16.4185 28.1818 16.0895C34.1827 14.1541 40.9356 15.846 45.6184 21.1651C52.1941 28.6354 52.1962 40.6644 45.6184 48.1368C40.9335 53.4581 34.1784 55.1499 28.1775 53.2124ZM55.2107 51.2492C51.5977 54.9214 47.0856 57.1238 42.3943 57.8544C41.0718 58.0594 40.5359 56.2052 41.7503 55.6327C44.1057 54.5197 46.312 52.9774 48.2569 51.0036C57.1361 41.9717 57.1361 27.3281 48.2569 18.2984C46.312 16.3224 44.1036 14.7779 41.7503 13.6692C40.5359 13.0967 41.0718 11.2425 42.3943 11.4476C47.0835 12.176 51.5977 14.3784 55.2107 18.0506C64.2261 27.2213 64.2261 42.0828 55.2107 51.2492Z" fill="url(#paint0_radial_3220_2995)"/>
</g>
<defs>
<radialGradient id="paint0_radial_3220_2995" cx="0" cy="0" r="1" gradientUnits="userSpaceOnUse" gradientTransform="translate(28.2207 39.3353) scale(40.0031 60.8998)">
<stop stop-color="#2CCCFF"/>
<stop offset="1" stop-color="#001CAE"/>
</radialGradient>
</defs>
</svg>
