<svg width="104" height="20" viewBox="0 0 104 20" fill="none" xmlns="http://www.w3.org/2000/svg">
<path d="M0.833252 4.91396C0.833252 2.66028 2.66022 0.833313 4.9139 0.833313H15.0859C17.3396 0.833313 19.1666 2.66028 19.1666 4.91396V15.086C19.1666 17.3397 17.3396 19.1666 15.0859 19.1666H4.9139C2.66022 19.1666 0.833252 17.3397 0.833252 15.086V4.91396Z" fill="#FFEBB8"/>
<g clip-path="url(#clip0_3238_926)">
<path d="M12.3394 8.29697C12.287 8.35022 12.2008 8.31376 12.2008 8.23905C12.2008 8.17086 12.2008 8.09567 12.1975 8.02468C12.1168 5.07617 7.70537 5.07617 7.62467 8.02468C7.62282 8.09567 7.6219 8.16713 7.6219 8.23905C7.6219 8.31118 7.5343 8.34791 7.48327 8.29697C7.43319 8.24699 7.38126 8.19608 7.33023 8.14751C5.20148 6.12003 2.08414 9.26469 4.09652 11.4043C4.14536 11.456 4.19498 11.5073 4.24536 11.5584C6.67345 14.0041 9.91054 14.0044 9.9111 14.0044C9.91165 14.0044 13.1492 14.0041 15.5773 11.5584C15.628 11.5077 15.6776 11.4563 15.7261 11.4043C17.7385 9.26238 14.6193 6.12003 12.4924 8.14751C12.441 8.19608 12.3885 8.24606 12.3394 8.29697Z" fill="#262F2A"/>
<path fill-rule="evenodd" clip-rule="evenodd" d="M11.7864 10.5131C11.7181 10.5131 11.6945 10.6125 11.7381 10.6651C11.8152 10.7583 11.8616 10.8782 11.8616 11.0091C11.8616 11.306 11.6226 11.5466 11.3279 11.5466C11.0331 11.5466 10.7942 11.306 10.7942 11.0091C10.7942 10.9932 10.7736 10.9853 10.7643 10.9982C10.6802 11.1146 10.6233 11.2453 10.6 11.3826C10.5869 11.4599 10.5245 11.5239 10.4461 11.5239H10.4028C10.3005 11.5239 10.2161 11.4403 10.2312 11.3391C10.3347 10.6455 11.0134 10.1425 11.7864 10.1425C12.5595 10.1425 13.2382 10.6455 13.3417 11.3391C13.3568 11.4403 13.2724 11.5239 13.1701 11.5239C13.0678 11.5239 12.9868 11.4399 12.9646 11.34C12.8634 10.8854 12.3943 10.5131 11.7864 10.5131ZM7.04713 11.0091C7.04713 10.9881 7.02017 10.9769 7.00748 10.9936C6.91752 11.1118 6.85623 11.2457 6.83029 11.3869C6.81499 11.4702 6.74767 11.5395 6.66294 11.5395H6.63111C6.52883 11.5395 6.44443 11.456 6.45952 11.3548C6.56297 10.6608 7.24172 10.1581 8.01475 10.1581C8.78777 10.1581 9.46653 10.6608 9.56998 11.3548C9.58506 11.456 9.50066 11.5395 9.39838 11.5395C9.2961 11.5395 9.21509 11.4556 9.19286 11.3557C9.09175 10.9007 8.6227 10.5287 8.01475 10.5287C7.95947 10.5287 7.93921 10.6069 7.97624 10.648C8.06218 10.7434 8.11453 10.8701 8.11453 11.0091C8.11453 11.306 7.87559 11.5466 7.58082 11.5466C7.28607 11.5466 7.04713 11.306 7.04713 11.0091ZM10.7785 12.2469C10.6887 12.1979 10.577 12.2331 10.5047 12.3055C10.3653 12.445 10.154 12.5404 9.90954 12.5404C9.66438 12.5404 9.45335 12.446 9.31429 12.3063C9.24208 12.2338 9.13054 12.1982 9.0406 12.2469C8.95066 12.2957 8.91619 12.4095 8.98064 12.489C9.1916 12.7491 9.5335 12.911 9.90954 12.911C10.2858 12.911 10.6269 12.7474 10.8376 12.4892C10.9023 12.4099 10.8682 12.296 10.7785 12.2469Z" fill="#FFEBB8"/>
</g>
<path d="M26.546 7.622C26.546 5.83 28.03 4.584 30.186 4.584C32.258 4.584 33.574 5.732 33.63 7.58H31.838C31.796 6.698 31.166 6.18 30.158 6.18C29.052 6.18 28.338 6.712 28.338 7.566C28.338 8.294 28.73 8.7 29.584 8.896L31.194 9.246C32.944 9.624 33.798 10.52 33.798 12.046C33.798 13.95 32.314 15.182 30.06 15.182C27.876 15.182 26.448 14.02 26.406 12.186H28.198C28.212 13.054 28.912 13.572 30.06 13.572C31.25 13.572 32.006 13.054 32.006 12.2C32.006 11.514 31.656 11.108 30.816 10.926L29.192 10.562C27.456 10.184 26.546 9.19 26.546 7.622ZM38.2612 15.182C36.2032 15.182 34.7612 13.684 34.7612 11.542C34.7612 9.372 36.1752 7.874 38.2052 7.874C40.2772 7.874 41.5932 9.26 41.5932 11.416V11.934L36.3852 11.948C36.5112 13.166 37.1552 13.782 38.2892 13.782C39.2272 13.782 39.8432 13.418 40.0392 12.76H41.6212C41.3272 14.272 40.0672 15.182 38.2612 15.182ZM38.2192 9.274C37.2112 9.274 36.5952 9.82 36.4272 10.856H39.8992C39.8992 9.904 39.2412 9.274 38.2192 9.274ZM46.0541 15.182C43.9961 15.182 42.5541 13.684 42.5541 11.542C42.5541 9.372 43.9681 7.874 45.9981 7.874C48.0701 7.874 49.3861 9.26 49.3861 11.416V11.934L44.1781 11.948C44.3041 13.166 44.9481 13.782 46.0821 13.782C47.0201 13.782 47.6361 13.418 47.8321 12.76H49.4141C49.1201 14.272 47.8601 15.182 46.0541 15.182ZM46.0121 9.274C45.0041 9.274 44.3881 9.82 44.2201 10.856H47.6921C47.6921 9.904 47.0341 9.274 46.0121 9.274ZM54.1205 11.528C54.1205 9.372 55.6745 7.888 57.8165 7.888C59.9585 7.888 61.5125 9.372 61.5125 11.528C61.5125 13.684 59.9585 15.168 57.8165 15.168C55.6745 15.168 54.1205 13.684 54.1205 11.528ZM55.8285 11.528C55.8285 12.788 56.6405 13.642 57.8165 13.642C58.9925 13.642 59.8045 12.788 59.8045 11.528C59.8045 10.268 58.9925 9.414 57.8165 9.414C56.6405 9.414 55.8285 10.268 55.8285 11.528ZM64.5744 15H62.8664V8.084H64.4484L64.5884 8.98C65.0224 8.28 65.8624 7.874 66.8004 7.874C68.5364 7.874 69.4324 8.952 69.4324 10.744V15H67.7244V11.15C67.7244 9.988 67.1504 9.428 66.2684 9.428C65.2184 9.428 64.5744 10.156 64.5744 11.276V15ZM76.928 4.766V13.348H81.212V15H75.136V4.766H76.928ZM85.3744 15.182C83.3164 15.182 81.8744 13.684 81.8744 11.542C81.8744 9.372 83.2884 7.874 85.3184 7.874C87.3904 7.874 88.7064 9.26 88.7064 11.416V11.934L83.4984 11.948C83.6244 13.166 84.2684 13.782 85.4024 13.782C86.3404 13.782 86.9564 13.418 87.1524 12.76H88.7344C88.4404 14.272 87.1804 15.182 85.3744 15.182ZM85.3324 9.274C84.3244 9.274 83.7084 9.82 83.5404 10.856H87.0124C87.0124 9.904 86.3544 9.274 85.3324 9.274ZM91.7814 15H90.0734V8.084H91.6554L91.7954 8.98C92.2294 8.28 93.0694 7.874 94.0074 7.874C95.7434 7.874 96.6394 8.952 96.6394 10.744V15H94.9314V11.15C94.9314 9.988 94.3574 9.428 93.4754 9.428C92.4254 9.428 91.7814 10.156 91.7814 11.276V15ZM97.7035 12.9H99.3275C99.3415 13.502 99.7895 13.88 100.574 13.88C101.372 13.88 101.806 13.558 101.806 13.054C101.806 12.704 101.624 12.452 101.008 12.312L99.7615 12.018C98.5155 11.738 97.9135 11.15 97.9135 10.044C97.9135 8.686 99.0615 7.874 100.658 7.874C102.212 7.874 103.262 8.77 103.276 10.114H101.652C101.638 9.526 101.246 9.148 100.588 9.148C99.9155 9.148 99.5235 9.456 99.5235 9.974C99.5235 10.366 99.8315 10.618 100.42 10.758L101.666 11.052C102.828 11.318 103.416 11.85 103.416 12.914C103.416 14.314 102.226 15.182 100.518 15.182C98.7955 15.182 97.7035 14.258 97.7035 12.9Z" fill="#262F2A"/>
<defs>
<clipPath id="clip0_3238_926">
<rect width="13.543" height="8.93011" fill="white" transform="translate(3.13965 5.50537)"/>
</clipPath>
</defs>
</svg>
